<?xml version="1.0" encoding="UTF-8" standalone="no"?>
<!-- Created with Inkscape (http://www.inkscape.org/) -->

<svg
   width="500mm"
   height="500mm"
   viewBox="0 0 500 500"
   version="1.1"
   id="svg1"
   xml:space="preserve"
   inkscape:export-filename="..\android\app\src\main\res\mipmap-xxxhdpi\ic_launcher.png"
   inkscape:export-xdpi="9.7536001"
   inkscape:export-ydpi="9.7536001"
   inkscape:version="1.3.1 (91b66b0783, 2023-11-16)"
   sodipodi:docname="crud.svg"
   xmlns:inkscape="http://www.inkscape.org/namespaces/inkscape"
   xmlns:sodipodi="http://sodipodi.sourceforge.net/DTD/sodipodi-0.dtd"
   xmlns="http://www.w3.org/2000/svg"
   xmlns:svg="http://www.w3.org/2000/svg"
   xmlns:rdf="http://www.w3.org/1999/02/22-rdf-syntax-ns#"
   xmlns:cc="http://creativecommons.org/ns#"
   xmlns:dc="http://purl.org/dc/elements/1.1/"><title
     id="title1">CRUD icon</title><sodipodi:namedview
     id="namedview1"
     pagecolor="#ffffff"
     bordercolor="#000000"
     borderopacity="0.25"
     inkscape:showpageshadow="false"
     inkscape:pageopacity="0.0"
     inkscape:pagecheckerboard="0"
     inkscape:deskcolor="#d1d1d1"
     inkscape:document-units="mm"
     showguides="true"
     inkscape:zoom="0.36213173"
     inkscape:cx="907.12846"
     inkscape:cy="983.06768"
     inkscape:window-width="958"
     inkscape:window-height="1000"
     inkscape:window-x="953"
     inkscape:window-y="0"
     inkscape:window-maximized="0"
     inkscape:current-layer="svg1" /><defs
     id="defs1"><rect
       x="706.92507"
       y="571.61519"
       width="949.93056"
       height="775.16616"
       id="rect9" /><rect
       x="535.71665"
       y="737.30075"
       width="804.67454"
       height="428.02104"
       id="rect8" /><rect
       x="563.33091"
       y="759.39216"
       width="822.90496"
       height="397.64535"
       id="rect7" /><style
       id="style1">.cls-1{fill:#f95631;}</style></defs><metadata
     id="metadata1"><rdf:RDF><cc:Work
         rdf:about=""><dc:title>CRUD icon</dc:title><dc:creator><cc:Agent><dc:title>Gabbar</dc:title></cc:Agent></dc:creator><dc:rights><cc:Agent><dc:title>Team Void</dc:title></cc:Agent></dc:rights><dc:publisher><cc:Agent><dc:title>Gabbar</dc:title></cc:Agent></dc:publisher></cc:Work></rdf:RDF></metadata><rect
     style="fill:#000000;fill-opacity:1;fill-rule:evenodd;stroke:none;stroke-width:0.918001;stroke-linejoin:round"
     id="rect4"
     width="500"
     height="500"
     x="-3.5527137e-15"
     y="0"
     ry="84.059837" /><g
     id="_5"
     data-name="5"
     transform="matrix(12.081347,0,0,12.081347,237.78074,-23.039427)"
     inkscape:label="_5"><path
       class="cls-1"
       d="m 2.1331285,18.216252 a 1.144605,1.144603 0 0 0 0,-0.194583 v -6.867618 a 1.144605,1.144603 0 0 0 -2.28921001,0 v 6.867618 a 1.144605,1.144603 0 0 0 0,0.194583 3.433815,3.4338091 0 1 0 2.22053371,0 z m -1.14460501,4.38383 A 1.144605,1.144603 0 1 1 2.1331285,21.455478 1.144605,1.144603 0 0 1 0.98852349,22.600082 Z"
       id="path1"
       style="fill:#ffffff;fill-opacity:1;stroke-width:1.1446" /><path
       d="M 6.0018933,32.901509 H -4.0248463 A 2.28921,2.2892061 0 0 1 -6.073689,31.642446 L -8.9352014,25.91943 a 2.28921,2.2892061 0 0 1 0,-1.980163 L -2.6055361,10.204031 A 2.28921,2.2892061 0 0 1 -0.56813928,8.864845 H 2.5451862 a 2.28921,2.2892061 0 0 1 2.0831811,1.339186 l 6.3296647,13.735236 a 2.28921,2.2892061 0 0 1 0,1.980163 L 8.0965204,31.642446 A 2.28921,2.2892061 0 0 1 6.0018933,32.901509 Z M -0.56813928,11.154051 -6.8978045,24.889288 -4.0248463,30.612303 H 6.0018933 l 2.8729582,-5.723015 v 0 L 2.5451862,11.154051 Z"
       id="path2"
       style="stroke-width:1.1446;fill:#ffffff;fill-opacity:1" /><path
       d="m 5.5669434,36.335318 h -9.1568398 a 1.144605,1.144603 0 0 1 0,-2.289206 h 9.1568398 a 1.144605,1.144603 0 0 1 0,2.289206 z"
       id="path3"
       style="stroke-width:1.1446;fill:#ffffff;fill-opacity:1" /></g></svg>
